<svg width="71" height="19" fill="none" xmlns="http://www.w3.org/2000/svg"><path d="M3.293 13.85c-.682 0-1.262-.1-1.74-.302a2.207 2.207 0 01-1.06-.997c-.227-.463-.341-1.068-.341-1.816V.675h2.657v9.632c0 .285.048.517.143.695a.873.873 0 00.431.374c.18.06.383.089.61.089h4.2v2.386h-4.9zm11.366.09c-.79 0-1.466-.078-2.029-.232-.562-.166-1.023-.439-1.382-.819-.347-.38-.604-.884-.772-1.513-.155-.63-.233-1.407-.233-2.333 0-.973.078-1.774.233-2.403.168-.641.425-1.14.772-1.496.36-.368.82-.623 1.382-.765.575-.155 1.25-.232 2.029-.232.802 0 1.484.077 2.046.232.563.154 1.017.415 1.364.783.36.356.617.855.772 1.496.168.629.252 1.424.252 2.385 0 .95-.078 1.745-.234 2.386-.155.63-.407 1.128-.754 1.496-.347.368-.808.629-1.382.783-.562.154-1.25.232-2.064.232zm0-2.101c.323 0 .592-.03.808-.09a.944.944 0 00.538-.355c.144-.19.251-.475.323-.855.072-.38.108-.878.108-1.496 0-.629-.036-1.127-.108-1.495-.072-.38-.18-.659-.323-.837a.916.916 0 00-.538-.374 3.097 3.097 0 00-.808-.089c-.311 0-.58.03-.808.09a.994.994 0 00-.539.373c-.143.178-.25.457-.323.837-.06.368-.09.866-.09 1.495 0 .618.03 1.116.09 1.496.072.38.18.665.323.855.144.178.324.296.539.356.227.059.497.089.808.089zm9.141 2.118c-.73 0-1.323-.213-1.778-.64-.455-.428-.682-1.021-.682-1.781v-.855c0-.724.257-1.317.772-1.78.514-.475 1.316-.712 2.405-.712h2.46V7.53c0-.297-.055-.54-.162-.73-.108-.202-.311-.344-.61-.427-.288-.095-.73-.143-1.329-.143h-2.89V4.7a13.625 13.625 0 011.616-.375c.622-.106 1.37-.16 2.244-.16.801 0 1.483.095 2.046.285.574.19 1.005.516 1.292.98.3.462.449 1.103.449 1.922v6.499h-2.1l-.431-1.015a1.802 1.802 0 01-.43.32 7.356 7.356 0 01-.755.374c-.287.119-.616.22-.987.303a5.007 5.007 0 01-1.13.124zm1.345-1.833c.12 0 .252-.012.395-.036l.467-.107c.168-.047.317-.089.449-.124.143-.048.257-.09.34-.125a2.56 2.56 0 00.18-.071V9.435l-1.615.107c-.467.036-.814.154-1.041.356-.216.202-.323.475-.323.819v.392c0 .237.047.433.143.587a.948.948 0 00.413.338c.18.06.377.09.592.09zm10.534 1.833c-.754 0-1.388-.154-1.903-.463-.515-.32-.903-.83-1.167-1.53-.251-.713-.377-1.645-.377-2.796 0-1.187.108-2.148.324-2.884.227-.736.604-1.276 1.13-1.62.527-.345 1.25-.517 2.172-.517.443 0 .88.048 1.31.143.432.083.815.184 1.15.302V.266h2.674v13.585h-2.244l-.43-.909c-.204.19-.455.363-.754.517a4.776 4.776 0 01-.916.374 3.882 3.882 0 01-.97.124zm.933-2.118c.36 0 .682-.06.97-.178.299-.119.544-.238.736-.356V6.497a28.12 28.12 0 00-.754-.249 2.788 2.788 0 00-.844-.124c-.443 0-.802.077-1.077.231-.263.154-.455.445-.575.872-.12.416-.179 1.021-.179 1.816 0 .736.054 1.312.162 1.727.12.404.305.683.556.837.251.155.586.232 1.005.232zm7.594-8.956c-.252 0-.378-.118-.378-.356V.782c0-.249.126-.374.377-.374h2.047a.31.31 0 01.251.107.4.4 0 01.09.267v1.745c0 .238-.114.356-.341.356h-2.047zm-.324 10.968V4.29h2.657v9.56h-2.657zm5.596-.001V4.29h2.19l.467.979c.359-.297.807-.558 1.346-.783a4.222 4.222 0 011.687-.357c.79 0 1.4.155 1.831.463.431.309.73.724.898 1.247.18.51.269 1.08.269 1.709v6.303h-2.657V7.886c0-.308-.06-.564-.18-.765a1.093 1.093 0 00-.466-.463 1.565 1.565 0 00-.736-.16 3.046 3.046 0 00-1.4.338 4.443 4.443 0 00-.592.374v6.64h-2.657zm14.068 4.416c-.61 0-1.155-.089-1.633-.267-.467-.178-.838-.44-1.113-.784-.275-.332-.413-.747-.413-1.246v-.285c0-.51.144-.95.43-1.317.3-.356.683-.63 1.15-.82a3.928 3.928 0 011.49-.284l.79.819c-.264 0-.497.042-.7.125a1.146 1.146 0 00-.485.356 1.09 1.09 0 00-.162.605v.196c0 .344.12.605.359.783.24.178.58.267 1.023.267h1.831c.443 0 .796-.089 1.06-.267.274-.166.412-.421.412-.765v-.285a.94.94 0 00-.161-.552.955.955 0 00-.45-.338c-.19-.083-.454-.125-.79-.125H64.05c-1.077 0-1.879-.196-2.406-.588-.514-.403-.771-.896-.771-1.477 0-.487.137-.89.412-1.211.288-.332.683-.552 1.185-.659a2.846 2.846 0 01-.915-.73 2.837 2.837 0 01-.485-.943 3.97 3.97 0 01-.144-1.069c0-.7.144-1.281.431-1.744.3-.463.742-.807 1.329-1.033.598-.226 1.346-.338 2.243-.338h5.224v1.442l-1.472.267c.108.119.215.261.323.427.108.155.198.362.27.623.083.25.125.564.125.944 0 .546-.12 1.039-.359 1.478-.227.439-.598.79-1.113 1.05-.502.261-1.173.392-2.01.392H64.21c-.323 0-.586.047-.79.142-.203.095-.305.267-.305.517 0 .201.084.344.252.427.18.071.377.107.592.107h2.657c.742 0 1.37.095 1.885.285.514.19.909.498 1.184.925.275.416.413.968.413 1.656v.267c0 .938-.3 1.674-.897 2.208-.599.546-1.52.819-2.765.819h-2.89zm1.041-9.33h1.023c.371 0 .653-.053.844-.16a.906.906 0 00.413-.463 1.79 1.79 0 00.126-.694c0-.332-.054-.6-.162-.801a.837.837 0 00-.43-.427 1.808 1.808 0 00-.719-.125h-1.005c-.455 0-.796.1-1.023.303-.228.19-.341.528-.341 1.014 0 .463.107.808.323 1.033.215.214.532.32.951.32z" fill="#be1924"/></svg>