<svg xmlns="http://www.w3.org/2000/svg" viewBox="0 0 250.1 203.1"><g data-name="レイヤー 2"><path d="M78.7 203.1c94.3 0 145.9-78.2 145.9-145.9 0-2.2 0-4.4-.1-6.6a107.41 107.41 0 0025.6-26.5 104.26 104.26 0 01-29.5 8.1 51.25 51.25 0 0022.5-28.4 100.9 100.9 0 01-32.6 12.4A51.34 51.34 0 00123.1 63 145.52 145.52 0 0117.4 9.4a51.35 51.35 0 0015.9 68.5A50.27 50.27 0 0110 71.5v.6a51.37 51.37 0 0041.2 50.3 50.57 50.57 0 01-23.2.9 51.31 51.31 0 0047.9 35.6 103 103 0 01-63.7 22c-4.1 0-8.2-.3-12.2-.7a147.31 147.31 0 0078.7 22.9" fill="#fff" data-name="Logo FIXED"/></g></svg>