<svg version="1.1" id="Logo" xmlns="http://www.w3.org/2000/svg" x="0" y="0" viewBox="0 0 503.8 503.8" xml:space="preserve"><style>.st0{fill:#fff}</style><path class="st0" d="M251.9 45.4c67.3 0 75.2.3 101.8 1.5 24.6 1.1 37.9 5.2 46.8 8.7 11 4 20.9 10.5 29 18.8 8.4 8.1 14.8 18 18.9 29 3.5 8.9 7.5 22.2 8.7 46.8 1.2 26.6 1.5 34.5 1.5 101.8s-.3 75.2-1.5 101.8c-1.1 24.6-5.2 37.9-8.7 46.8-8.5 22-25.8 39.3-47.8 47.8-8.9 3.5-22.2 7.5-46.8 8.7-26.6 1.2-34.5 1.5-101.8 1.5s-75.2-.3-101.8-1.5c-24.6-1.1-37.9-5.2-46.8-8.7-11-4-20.9-10.5-29-18.9-8.4-8.1-14.8-18-18.8-29-3.4-8.9-7.5-22.2-8.7-46.8-1.2-26.6-1.5-34.5-1.5-101.8s.3-75.2 1.5-101.8c1.1-24.6 5.2-37.9 8.7-46.8 4-11 10.5-20.9 18.8-29 8.1-8.4 18-14.8 29-18.8 8.9-3.4 22.2-7.5 46.8-8.7 26.5-1.2 34.5-1.5 101.7-1.4M252 0c-68.4 0-77 .3-103.9 1.5S102.9 7 86.9 13.2c-16.8 6.3-32 16.2-44.6 29.1-12.8 12.6-22.8 27.8-29.1 44.6C7 102.9 2.7 121.2 1.5 148S0 183.5 0 251.9s.3 77 1.5 103.9 5.5 45.1 11.7 61.1c6.3 16.8 16.2 32 29.1 44.6 12.6 12.8 27.8 22.7 44.6 29.1 16 6.2 34.3 10.5 61.1 11.7s35.4 1.5 103.9 1.5 77-.3 103.9-1.5 45.1-5.5 61.1-11.7c33.9-13.1 60.6-39.8 73.7-73.7 6.2-16 10.5-34.3 11.7-61.1s1.5-35.5 1.5-103.9-.3-77-1.5-103.9-5.5-45.1-11.7-61.1c-6.3-16.8-16.2-32-29-44.6C449 29.5 433.8 19.6 417 13.2 401 7 382.7 2.7 355.9 1.5S320.3 0 252 0z"/><path class="st0" d="M251.9 122.6c-71.4 0-129.4 57.9-129.4 129.4s57.9 129.4 129.4 129.4S381.3 323.5 381.3 252s-57.9-129.4-129.4-129.4zm0 213.3c-46.4 0-84-37.6-84-84s37.6-84 84-84 84 37.6 84 84-37.6 84-84 84z"/><circle class="st0" cx="386.4" cy="117.4" r="30.2"/></svg>